<svg id="xx" xmlns="http://www.w3.org/2000/svg"><symbol id="xx:advisor" viewBox="0 0 50 32">
  <path fill-rule="evenodd" clip-rule="evenodd" d="M23.8217 0.00893348C18.8038 0.239097 14.0423 1.73405 9.79109 4.41412L9.03742 4.88926H4.52645C2.04536 4.88926 0.0154295 4.89938 0.0154295 4.91169C0.0154295 4.92405 0.928642 5.92362 2.04479 7.13293L4.07419 9.33169L3.88484 9.48746C3.78069 9.57316 3.5075 9.85029 3.27775 10.1033C1.49731 12.0644 0.429786 14.3667 0.0778578 17.0043C-0.0251489 17.7763 -0.0261161 19.2973 0.0759674 20.0495C0.352367 22.0869 0.996609 23.8074 2.10216 25.4607C4.09345 28.4387 7.26221 30.4037 10.8744 30.9007C11.5491 30.9935 13.2731 31.006 13.9299 30.9228C15.9044 30.6725 17.8268 29.9708 19.3814 28.933C19.8533 28.6179 20.6068 28.0375 20.7862 27.8508C20.8568 27.7774 20.9385 27.7172 20.9678 27.7172C20.9971 27.7172 21.9065 28.6785 22.9887 29.8533C24.071 31.0281 24.9682 31.9941 24.9826 32C24.997 32.0058 25.9066 31.0363 27.0039 29.8455L28.9991 27.6804L29.3231 27.962C34.236 32.2323 41.7157 31.9606 46.3311 27.3442C49.7424 23.9322 50.8806 18.9755 49.2984 14.4217C48.6915 12.675 47.7468 11.1663 46.3819 9.76455L45.9454 9.31627L46.1463 9.0854C46.2568 8.95847 47.1667 7.96731 48.1682 6.88287L49.989 4.91117L45.4653 4.89999L40.9415 4.88886L40.5589 4.63254C39.5325 3.94503 37.8325 3.01101 36.6371 2.47773C33.6286 1.1357 30.4541 0.33076 27.141 0.069925C26.5119 0.0204132 24.4127 -0.0181446 23.8217 0.00893348ZM26.9295 4.14509C29.3349 4.34542 31.4684 4.8284 33.7465 5.68841C34.079 5.8139 34.3509 5.92699 34.3508 5.9397C34.3507 5.95236 34.1777 6.03048 33.9661 6.1133C33.7547 6.19611 33.3343 6.38565 33.0321 6.5345C29.4695 8.28914 26.8033 11.1677 25.6481 14.5066C25.3262 15.4371 25.0988 16.4914 25.0456 17.2999C25.0301 17.5357 25.0107 17.7219 25.0024 17.7136C24.9941 17.7054 24.9668 17.4932 24.9417 17.242C24.6514 14.3388 23.3631 11.7254 21.1193 9.48829C20.1024 8.47435 18.9678 7.62406 17.6705 6.90369C17.1293 6.60316 16.3252 6.22148 15.8753 6.0516C15.7604 6.00822 15.6665 5.95762 15.6665 5.93917C15.6665 5.92068 15.7209 5.88541 15.7874 5.86074C15.8538 5.83612 16.205 5.70598 16.5677 5.5716C18.8228 4.73612 21.1748 4.24929 23.6745 4.10066C24.4126 4.0568 26.1545 4.08055 26.9295 4.14509ZM13.3711 10.1497C14.3732 10.2584 15.253 10.5086 16.1501 10.9398C19.0854 12.3507 20.9421 15.2947 20.9421 18.5379C20.9421 22.1677 18.615 25.3847 15.1609 26.5298C13.2385 27.1672 11.2246 27.1068 9.33571 26.3551C7.75949 25.7278 6.357 24.5834 5.41227 23.1537C4.7449 22.1437 4.27216 20.8848 4.09851 19.6552C4.01669 19.0757 4.02865 17.8166 4.12115 17.2672C4.36475 15.8206 4.88853 14.5854 5.73268 13.4668C6.94343 11.8625 8.68373 10.7459 10.6598 10.3055C11.5341 10.1106 12.5003 10.0551 13.3711 10.1497ZM38.3864 10.1499C40.7536 10.4078 42.9008 11.6358 44.3019 13.5332C45.8824 15.6735 46.359 18.4402 45.5853 20.9834C44.5936 24.2435 41.7327 26.5818 38.3141 26.9265C34.7815 27.2826 31.3468 25.3325 29.8326 22.111C28.4317 19.1306 28.9024 15.6307 31.0473 13.0779C31.9582 11.9938 33.133 11.1718 34.525 10.6446C35.2379 10.3747 35.8061 10.2436 36.747 10.1321C37.0485 10.0964 37.989 10.1065 38.3864 10.1499ZM12.1054 14.1388C11.3952 14.1887 10.6176 14.4612 9.98994 14.8802C9.57738 15.1555 8.95613 15.807 8.70299 16.2296C8.42664 16.6911 8.21293 17.2609 8.12236 17.7778C8.03074 18.301 8.0595 19.1366 8.18558 19.6148C8.59163 21.1547 9.73706 22.327 11.2921 22.7939C11.6547 22.9028 11.7522 22.913 12.4571 22.9159C13.1317 22.9186 13.2725 22.9065 13.6002 22.8172C15.4089 22.3246 16.7042 20.8101 16.8942 18.9658C17.0266 17.6795 16.5834 16.4152 15.6714 15.477C14.7158 14.494 13.5065 14.0402 12.1054 14.1388ZM36.5766 14.2037C35.2053 14.5079 34.0685 15.4177 33.4708 16.6892C33.1695 17.3301 33.098 17.6847 33.098 18.5379C33.098 19.1808 33.112 19.3337 33.2 19.6552C33.656 21.3197 34.9641 22.5315 36.6788 22.8778C37.2271 22.9885 38.1478 22.9489 38.6814 22.7916C39.4775 22.5569 40.045 22.2236 40.621 21.6522C41.1744 21.1032 41.5246 20.5117 41.7645 19.7209C41.8742 19.359 41.8843 19.2633 41.8872 18.5598C41.8899 17.8875 41.8778 17.7471 41.7882 17.4206C41.5732 16.6363 41.1362 15.9023 40.5566 15.3519C40.0142 14.8369 39.382 14.4742 38.6594 14.2635C38.2195 14.1353 37.038 14.1013 36.5766 14.2037Z"></path>
</symbol><symbol id="xx:airplane" viewBox="0 0 32 24">
  <path d="M31.6227 3.25313C31.5546 2.82053 31.3568 2.41885 31.0554 2.10135C30.754 1.78385 30.3632 1.56554 29.935 1.47535L24.7209 0.328683C24.1617 0.206649 23.5829 0.206191 23.0236 0.327339C22.4642 0.448488 21.9374 0.688418 21.4787 1.03091L6.06731 12.2665L1.75034 12.0887C1.40331 12.0763 1.06118 12.1736 0.772561 12.3668C0.483939 12.56 0.263493 12.8393 0.142534 13.1651C0.0215757 13.4908 0.00625432 13.8464 0.0987464 14.1813C0.191238 14.5163 0.386841 14.8135 0.657772 15.0309L5.0991 18.5242C5.63206 19.1731 5.98737 19.0487 14.8078 14.2398L15.6339 22.6131C15.6477 22.8415 15.7259 23.0614 15.8596 23.247C15.9932 23.4327 16.1768 23.5766 16.389 23.662C16.5416 23.7224 16.7045 23.7526 16.8686 23.7509C17.199 23.7408 17.5145 23.6113 17.7569 23.3865L19.8798 21.4487C20.0912 21.2527 20.2344 20.9942 20.2884 20.7109L22.2337 10.1331C25.4049 8.35535 28.4072 6.68424 30.5479 5.46646C30.9309 5.25087 31.239 4.92345 31.4311 4.52794C31.6231 4.13243 31.69 3.68768 31.6227 3.25313ZM29.6685 3.91979C27.4479 5.18202 24.3389 6.95091 20.9991 8.78202L20.6349 8.98646L18.5652 20.2487L17.2595 21.4398L16.2824 11.3954L15.101 11.9998C8.73211 15.5554 6.60915 16.5865 5.88077 16.9065L2.06123 13.8754L6.57362 14.0709L22.5624 2.46202C22.8137 2.27399 23.1019 2.14118 23.408 2.07225C23.7141 2.00332 24.0314 1.99983 24.3389 2.06202L29.5353 3.18202C29.6154 3.19654 29.6887 3.23628 29.7446 3.29544C29.8005 3.35461 29.8361 3.43009 29.8462 3.51091C29.8645 3.58912 29.857 3.67114 29.825 3.7448C29.793 3.81846 29.7381 3.87983 29.6685 3.91979Z" ></path>
  <path d="M6.06839 7.14673L9.23061 8.03562L10.6874 6.97784L7.1343 5.94673L8.73318 4.96895L13.592 4.82673L15.635 3.34229L8.73318 3.55562C8.51559 3.54384 8.29935 3.59639 8.1114 3.70673L5.77526 5.06673C5.58212 5.18122 5.42717 5.35037 5.32995 5.55285C5.23272 5.75533 5.19757 5.98208 5.22891 6.20452C5.26026 6.42696 5.35671 6.63513 5.5061 6.80281C5.65549 6.97048 5.85114 7.09015 6.06839 7.14673Z" ></path>
</symbol><symbol id="xx:bookmark" viewBox="0 0 12 16">
<g clip-path="url(#clip0_2122_15094)">
<path fill-rule="evenodd" clip-rule="evenodd" d="M5.66667 12.5714L11.3333 16V2.28571C11.3333 1.67951 11.0945 1.09812 10.6694 0.66947C10.2444 0.240816 9.66782 0 9.06667 0H2.26667C1.66551 0 1.08897 0.240816 0.663891 0.66947C0.238809 1.09812 0 1.67951 0 2.28571V16L5.66667 12.5714ZM1.13333 13.9817L5.66667 11.2389L10.2 13.9817V2.28571C10.2 1.98261 10.0806 1.69192 9.86806 1.47759C9.65551 1.26327 9.36725 1.14286 9.06667 1.14286H2.26667C1.96609 1.14286 1.67782 1.26327 1.46528 1.47759C1.25274 1.69192 1.13333 1.98261 1.13333 2.28571V13.9817Z" fill="white"></path>
</g>
<defs>
<clipPath id="clip0_2122_15094">
<rect width="11.3333" height="16" fill="white"></rect>
</clipPath>
</defs>
</symbol><symbol id="xx:calendar" viewBox="0 0 8 9">
  <path d="M7.125 1.25H5.875V0.625H5.25V1.25H2.75V0.625H2.125V1.25H0.875C0.53125 1.25 0.25 1.53125 0.25 1.875V8.125C0.25 8.46875 0.53125 8.75 0.875 8.75H7.125C7.46875 8.75 7.75 8.46875 7.75 8.125V1.875C7.75 1.53125 7.46875 1.25 7.125 1.25ZM7.125 8.125H0.875V3.75H7.125V8.125ZM7.125 3.125H0.875V1.875H2.125V2.5H2.75V1.875H5.25V2.5H5.875V1.875H7.125V3.125Z"></path>
</symbol><symbol id="xx:check" viewBox="0 0 16 12">
  <path d="M1 4.17647L6.5 10L15 1" stroke="white" stroke-width="2"></path>
</symbol><symbol id="xx:cross" viewBox="0 0 18 18">
<path d="M17 1L1 17" stroke="#CAD8E4" stroke-width="2"></path>
<path d="M1 1L17 17" stroke="#CAD8E4" stroke-width="2"></path>
</symbol><symbol id="xx:fb" viewBox="0 0 10 17">
<path d="M6.04148 16.9972V9.25657H8.65284L9.04101 6.22588H6.04148V4.29545C6.04148 3.42091 6.28514 2.82213 7.5403 2.82213H9.13073V0.120103C8.35689 0.0371732 7.57906 -0.00286921 6.8008 0.000159767C4.4926 0.000159767 2.90784 1.40926 2.90784 3.99607V6.22021H0.313477V9.25091H2.91351V16.9972H6.04148Z"></path>
</symbol><symbol id="xx:flash" viewBox="0 0 14.3193 19.203">
	<desc>
			Created with Pixso.
	</desc>
	<defs></defs>
	<path id="Vector" d="M2.74805 0.92395C2.90527 0.376831 3.40527 0 3.97461 0L10.2744 0C11.1445 0 11.7588 0.852051 11.4824 1.67761L11.4805 1.68726L9.96582 6L13.043 6C14.1787 6 14.7314 7.3728 13.9629 8.17322L13.958 8.17798L3.54688 18.8076C2.6416 19.746 1.0752 18.8796 1.3916 17.6124L2.7959 11.9976L1.27539 11.9976C1.07812 11.9978 0.883789 11.9521 0.707031 11.8641C0.530273 11.7762 0.375977 11.6484 0.256836 11.491C0.138672 11.3334 0.0576172 11.1504 0.0214844 10.9564C-0.0146484 10.7623 -0.00488281 10.5626 0.0488281 10.3728L2.74902 0.925171L2.74805 0.92395ZM3.97559 1.19995C3.95898 1.19995 3.94336 1.20508 3.93066 1.21484C3.91699 1.22461 3.9082 1.2384 3.90332 1.25403L1.20312 10.7028C1.19141 10.7509 1.22754 10.7988 1.27539 10.7988L3.56348 10.7988C3.65527 10.7988 3.74512 10.8197 3.82617 10.8595C3.9082 10.8994 3.97949 10.9574 4.03613 11.0292C4.0918 11.1008 4.13086 11.1843 4.15039 11.2733C4.16895 11.3623 4.16797 11.4545 4.14551 11.5428L2.55566 17.9028C2.55273 17.9146 2.55176 17.9266 2.55273 17.9388C2.55273 17.9436 2.55469 17.9484 2.55566 17.952C2.56055 17.9615 2.57129 17.976 2.5918 17.988C2.61328 18 2.63281 18 2.64258 18C2.64648 17.9991 2.65039 17.9976 2.6543 17.9952C2.66504 17.9897 2.6748 17.9824 2.68359 17.9736L2.6875 17.9688L13.0977 7.34155C13.1084 7.33142 13.1162 7.31787 13.1182 7.30322C13.1201 7.28516 13.1172 7.26697 13.1104 7.25037C13.1035 7.23438 13.0938 7.22021 13.0801 7.20959C13.0742 7.20483 13.0645 7.19995 13.0439 7.19995L9.12012 7.19995C9.02441 7.20007 8.92969 7.17712 8.84375 7.13306C8.75879 7.08911 8.68555 7.02527 8.62988 6.9469C8.57422 6.86865 8.53906 6.7782 8.52539 6.68323C8.51172 6.58813 8.52148 6.49133 8.55371 6.40076L10.3447 1.29602C10.3486 1.28479 10.3496 1.27295 10.3477 1.26147C10.3447 1.25 10.3408 1.23914 10.333 1.22974C10.3262 1.22046 10.3174 1.21289 10.3066 1.20764C10.2959 1.20251 10.2852 1.19983 10.2734 1.19995L3.97461 1.19995L3.97559 1.19995Z" fill="#FFFFFF" fill-opacity="1.000000" fill-rule="nonzero"></path>
</symbol><symbol id="xx:gift" viewBox="0 0 16.7998 19.2">
	<desc>
			Created with Pixso.
	</desc>
	<defs></defs>
	<path id="Vector" d="M10.7998 0C11.3574 -0.00012207 11.9033 0.154907 12.3779 0.447876C12.8516 0.740845 13.2354 1.16016 13.4844 1.65869C13.7334 2.1571 13.8389 2.71521 13.7891 3.27026C13.7383 3.82544 13.5342 4.35547 13.2002 4.80115L15.5996 4.80005C15.918 4.80005 16.2236 4.92639 16.4482 5.15149C16.6738 5.37646 16.7998 5.68176 16.7998 6L16.7998 9.59998C16.7998 9.91821 16.6738 10.2235 16.4482 10.4485C16.2236 10.6736 15.918 10.8 15.5996 10.8L15.5996 16.2C15.5996 16.9956 15.2842 17.7587 14.7217 18.3213C14.1592 18.8839 13.3955 19.2 12.5996 19.2L4.2002 19.2C3.4043 19.2 2.6416 18.8839 2.0791 18.3213C1.51562 17.7587 1.2002 16.9956 1.2002 16.2L1.2002 10.8C0.881836 10.8 0.576172 10.6736 0.351562 10.4485C0.125977 10.2235 0 9.91821 0 9.59998L0 6C0 5.68176 0.125977 5.37646 0.351562 5.15149C0.576172 4.92639 0.881836 4.80005 1.2002 4.80005L3.59961 4.80115C3.36328 4.48608 3.19141 4.12744 3.09375 3.74573C2.99609 3.36414 2.97461 2.96692 3.03027 2.5769C3.08594 2.18689 3.21777 1.81177 3.41895 1.47278C3.61914 1.13367 3.88477 0.837524 4.2002 0.601196C4.51562 0.364868 4.87402 0.192871 5.25586 0.0950928C5.63672 -0.00268555 6.03418 -0.0244141 6.42383 0.0313721C6.81445 0.0870361 7.18945 0.219116 7.52832 0.4198C7.86719 0.620483 8.16406 0.885986 8.40039 1.20117C8.67871 0.827759 9.04102 0.524536 9.45801 0.31604C9.87402 0.107422 10.334 -0.000732422 10.7998 0ZM7.7998 10.8L2.40039 10.8L2.40039 16.2C2.40039 16.6774 2.58984 17.1353 2.92676 17.4728C3.26465 17.8103 3.72266 18 4.2002 18L7.7998 18L7.7998 10.8ZM14.4004 10.8L9 10.8L9 18L12.5996 18C13.0771 18 13.5352 17.8103 13.873 17.4728C14.21 17.1353 14.4004 16.6774 14.4004 16.2L14.4004 10.8ZM7.7998 6L1.2002 6L1.2002 9.59998L7.7998 9.59998L7.7998 6ZM15.5996 6L9 6L9 9.59998L15.5996 9.59998L15.5996 6ZM10.7998 1.19995C10.3223 1.19995 9.86523 1.38965 9.52734 1.72717C9.18945 2.06482 9 2.52258 9 3L9 4.80005L10.7998 4.80005C11.2773 4.80005 11.7354 4.61035 12.0732 4.27283C12.4102 3.93518 12.5996 3.47742 12.5996 3C12.5996 2.52258 12.4102 2.06482 12.0732 1.72717C11.7354 1.38965 11.2773 1.19995 10.7998 1.19995ZM6 1.19995C5.53809 1.2002 5.09375 1.3783 4.75879 1.69727C4.42383 2.01624 4.22559 2.45178 4.20312 2.91345C4.18066 3.37524 4.33691 3.82776 4.63965 4.17749C4.94141 4.5271 5.36719 4.74695 5.82715 4.79163L6 4.80005L7.7998 4.80005L7.7998 3L7.79199 2.82715C7.74902 2.38184 7.54102 1.96838 7.20996 1.6676C6.87891 1.3667 6.44727 1.20007 6 1.19995Z" fill="#FFFFFF" fill-opacity="1.000000" fill-rule="nonzero"></path>
</symbol><symbol id="xx:grid-table" viewBox="0 0 30 24">
<path d="M10.833 24.0002H19.1663V17.3335H10.833V24.0002Z" ></path>
<path d="M21.667 24.0002H24.5837C26.0202 24.0002 27.398 23.5436 28.4138 22.731C29.4296 21.9183 30.0003 20.8161 30.0003 19.6668V17.3335H21.667V24.0002Z" ></path>
<path d="M30.0003 15.3332V8.6665H21.667V15.3332H30.0003Z" ></path>
<path d="M30.0003 6.66667V4.33333C30.0003 3.18406 29.4296 2.08186 28.4138 1.2692C27.398 0.456546 26.0202 0 24.5837 0H21.667V6.66667H30.0003Z" ></path>
<path d="M19.1663 0H10.833V6.66667H19.1663V0Z" ></path>
<path d="M8.33333 0H5.41667C3.98008 0 2.60233 0.456546 1.5865 1.2692C0.570683 2.08186 0 3.18406 0 4.33333V6.66667H8.33333V0Z" ></path>
<path d="M0 8.6665V15.3332H8.33333V8.6665H0Z" ></path>
<path d="M0 17.3335V19.6668C0 20.8161 0.570683 21.9183 1.5865 22.731C2.60233 23.5436 3.98008 24.0002 5.41667 24.0002H8.33333V17.3335H0Z" ></path>
<path d="M19.1663 8.6665V15.3332H10.833V8.6665H19.1663Z" ></path>
</symbol><symbol id="xx:ig" viewBox="0 0 17 17">
<path fill-rule="evenodd" clip-rule="evenodd" d="M5.28787 0.755002C6.11875 0.716752 6.38366 0.708252 8.50016 0.708252C10.6167 0.708252 10.8816 0.71746 11.7117 0.755002C12.5419 0.792544 13.1086 0.925002 13.6044 1.11696C14.1236 1.31317 14.5947 1.61988 14.9842 2.01654C15.3809 2.40542 15.6869 2.87575 15.8824 3.39567C16.0751 3.8915 16.2068 4.45817 16.2451 5.28692C16.2833 6.11921 16.2918 6.38413 16.2918 8.49992C16.2918 10.6164 16.2826 10.8813 16.2451 11.7122C16.2075 12.541 16.0751 13.1076 15.8824 13.6035C15.6869 14.1234 15.3804 14.5946 14.9842 14.984C14.5947 15.3807 14.1236 15.6867 13.6044 15.8822C13.1086 16.0748 12.5419 16.2066 11.7132 16.2448C10.8816 16.2831 10.6167 16.2916 8.50016 16.2916C6.38366 16.2916 6.11875 16.2824 5.28787 16.2448C4.45912 16.2073 3.89245 16.0748 3.39662 15.8822C2.87665 15.6866 2.40554 15.3801 2.01608 14.984C1.61968 14.5949 1.31293 14.124 1.1172 13.6042C0.925246 13.1083 0.793496 12.5417 0.755246 11.7129C0.716996 10.8806 0.708496 10.6157 0.708496 8.49992C0.708496 6.38342 0.717704 6.1185 0.755246 5.28833C0.792788 4.45817 0.925246 3.8915 1.1172 3.39567C1.31322 2.87581 1.62021 2.40493 2.01679 2.01584C2.40569 1.61952 2.87633 1.31277 3.39591 1.11696C3.89175 0.925002 4.45912 0.793252 5.28787 0.755002ZM11.6487 2.1575C10.827 2.11996 10.5805 2.11217 8.50016 2.11217C6.41979 2.11217 6.17329 2.11996 5.35162 2.1575C4.59158 2.19221 4.17933 2.319 3.9045 2.42596C3.54112 2.56763 3.28116 2.7355 3.00845 3.00821C2.74994 3.25971 2.551 3.56587 2.4262 3.90425C2.31925 4.17909 2.19245 4.59133 2.15775 5.35138C2.1202 6.17304 2.11241 6.41954 2.11241 8.49992C2.11241 10.5803 2.1202 10.8268 2.15775 11.6485C2.19245 12.4085 2.31925 12.8208 2.4262 13.0956C2.55087 13.4335 2.74991 13.7402 3.00845 13.9916C3.25991 14.2502 3.56662 14.4492 3.9045 14.5739C4.17933 14.6808 4.59158 14.8076 5.35162 14.8423C6.17329 14.8799 6.41908 14.8877 8.50016 14.8877C10.5812 14.8877 10.827 14.8799 11.6487 14.8423C12.4087 14.8076 12.821 14.6808 13.0958 14.5739C13.4592 14.4322 13.7192 14.2643 13.9919 13.9916C14.2504 13.7402 14.4495 13.4335 14.5741 13.0956C14.6811 12.8208 14.8079 12.4085 14.8426 11.6485C14.8801 10.8268 14.8879 10.5803 14.8879 8.49992C14.8879 6.41954 14.8801 6.17304 14.8426 5.35138C14.8079 4.59133 14.6811 4.17909 14.5741 3.90425C14.4325 3.54088 14.2646 3.28092 13.9919 3.00821C13.7404 2.74972 13.4342 2.55078 13.0958 2.42596C12.821 2.319 12.4087 2.19221 11.6487 2.1575ZM7.50495 10.9019C8.06075 11.1332 8.67964 11.1645 9.2559 10.9902C9.83217 10.816 10.3301 10.4471 10.6646 9.94651C10.999 9.44595 11.1494 8.84478 11.0899 8.2457C11.0304 7.64662 10.7647 7.08677 10.3383 6.66179C10.0665 6.39013 9.73777 6.18212 9.3759 6.05273C9.01402 5.92334 8.62797 5.8758 8.24551 5.91352C7.86306 5.95124 7.49373 6.07329 7.16411 6.27089C6.83448 6.46848 6.55277 6.7367 6.33925 7.05623C6.12573 7.37576 5.98571 7.73866 5.92928 8.11881C5.87284 8.49895 5.90139 8.88688 6.01288 9.25466C6.12436 9.62244 6.316 9.96093 6.57401 10.2458C6.83201 10.5306 7.14995 10.7547 7.50495 10.9019ZM5.66825 5.668C6.04014 5.29611 6.48164 5.00111 6.96754 4.79984C7.45344 4.59857 7.97423 4.49498 8.50016 4.49498C9.0261 4.49498 9.54688 4.59857 10.0328 4.79984C10.5187 5.00111 10.9602 5.29611 11.3321 5.668C11.704 6.03989 11.999 6.48139 12.2002 6.9673C12.4015 7.4532 12.5051 7.97398 12.5051 8.49992C12.5051 9.02585 12.4015 9.54664 12.2002 10.0325C11.999 10.5184 11.704 10.9599 11.3321 11.3318C10.581 12.0829 9.56234 12.5049 8.50016 12.5049C7.43799 12.5049 6.41932 12.0829 5.66825 11.3318C4.91717 10.5808 4.49523 9.56209 4.49523 8.49992C4.49523 7.43774 4.91717 6.41907 5.66825 5.668ZM13.3933 5.09142C13.4855 5.00448 13.5593 4.89994 13.6103 4.78398C13.6613 4.66802 13.6886 4.543 13.6904 4.41633C13.6923 4.28965 13.6687 4.16389 13.621 4.04649C13.5734 3.92909 13.5027 3.82245 13.4131 3.73286C13.3235 3.64328 13.2169 3.57258 13.0995 3.52495C12.9821 3.47732 12.8563 3.45373 12.7297 3.45558C12.603 3.45743 12.478 3.48467 12.362 3.5357C12.2461 3.58673 12.1415 3.66051 12.0546 3.75267C11.8855 3.9319 11.7929 4.16996 11.7965 4.41633C11.8001 4.66269 11.8996 4.89796 12.0738 5.07218C12.248 5.24641 12.4833 5.34587 12.7297 5.34946C12.976 5.35306 13.2141 5.26049 13.3933 5.09142Z" ></path>
</symbol><symbol id="xx:large-arrow" viewBox="0 0 34 18">
<path d="M34 8.72414H2M2 8.72414L7.48116 1M2 8.72414L7.48116 17" stroke="white" stroke-width="2"></path>
</symbol><symbol id="xx:location" viewBox="0 0 8 10">
  <path d="M4.00021 0.803711C5.92342 0.803711 7.48235 2.36264 7.48235 4.28585C7.48235 5.75728 6.44842 7.36085 4.40735 9.11371C4.29386 9.21121 4.14916 9.26475 3.99954 9.26462C3.84992 9.26449 3.70532 9.21069 3.592 9.113L3.45699 8.99585C1.50628 7.28871 0.518066 5.72443 0.518066 4.28585C0.518066 2.36264 2.07699 0.803711 4.00021 0.803711ZM4.00021 1.33943C3.21877 1.33943 2.46933 1.64985 1.91677 2.20241C1.36421 2.75498 1.05378 3.50441 1.05378 4.28585C1.05378 5.53657 1.96378 6.97764 3.80878 8.59193L3.94199 8.70728C3.95819 8.72121 3.97885 8.72887 4.00021 8.72887C4.02157 8.72887 4.04223 8.72121 4.05842 8.70728C5.99271 7.04585 6.94664 5.56621 6.94664 4.28585C6.94664 3.89892 6.87043 3.51578 6.72235 3.1583C6.57428 2.80083 6.35725 2.47602 6.08365 2.20241C5.81005 1.92881 5.48524 1.71178 5.12776 1.56371C4.77028 1.41564 4.38714 1.33943 4.00021 1.33943ZM4.00021 2.94657C4.35541 2.94657 4.69606 3.08767 4.94723 3.33884C5.19839 3.59 5.33949 3.93065 5.33949 4.28585C5.33949 4.64105 5.19839 4.98171 4.94723 5.23287C4.69606 5.48404 4.35541 5.62514 4.00021 5.62514C3.64501 5.62514 3.30436 5.48404 3.05319 5.23287C2.80203 4.98171 2.66092 4.64105 2.66092 4.28585C2.66092 3.93065 2.80203 3.59 3.05319 3.33884C3.30436 3.08767 3.64501 2.94657 4.00021 2.94657ZM4.00021 3.48228C3.78709 3.48228 3.5827 3.56694 3.432 3.71764C3.2813 3.86834 3.19664 4.07273 3.19664 4.28585C3.19664 4.49897 3.2813 4.70337 3.432 4.85406C3.5827 5.00476 3.78709 5.08943 4.00021 5.08943C4.21333 5.08943 4.41772 5.00476 4.56842 4.85406C4.71912 4.70337 4.80378 4.49897 4.80378 4.28585C4.80378 4.07273 4.71912 3.86834 4.56842 3.71764C4.41772 3.56694 4.21333 3.48228 4.00021 3.48228Z"></path>
</symbol><symbol id="xx:loupe" viewBox="0 0 512 512">
		<path d="M508.255,490.146l-128-128c-0.06-0.06-0.137-0.077-0.196-0.128c34.193-38.434,55.142-88.917,55.142-144.418
			c0-120.175-97.425-217.6-217.6-217.6S0.001,97.425,0.001,217.6s97.425,217.6,217.6,217.6c55.501,0,105.975-20.949,144.418-55.151
			c0.06,0.06,0.077,0.137,0.128,0.196l128,128c2.5,2.509,5.777,3.755,9.054,3.755s6.554-1.246,9.054-3.746
			C513.247,503.253,513.247,495.147,508.255,490.146z M217.601,409.6c-105.865,0-192-86.135-192-192s86.135-192,192-192
			s192,86.135,192,192S323.466,409.6,217.601,409.6z"></path>
</symbol><symbol id="xx:moon" viewBox="0 0 9 9">
  <path d="M8.87587 4.62076C8.83843 4.58332 8.79209 4.55602 8.74121 4.54139C8.69033 4.52677 8.63657 4.52532 8.58497 4.53716C8.01691 4.66741 7.42508 4.65125 6.86497 4.49018C6.30487 4.32911 5.79486 4.02842 5.38277 3.61631C4.97067 3.2042 4.67 2.69418 4.50896 2.13407C4.34791 1.57397 4.33177 0.982132 4.46204 0.414078C4.47387 0.362482 4.4724 0.308726 4.45776 0.257853C4.44313 0.20698 4.41581 0.160658 4.37838 0.123233C4.34094 0.0858076 4.29461 0.0585057 4.24373 0.0438885C4.19286 0.0292712 4.1391 0.0278177 4.08751 0.0396644C3.38082 0.202685 2.73065 0.551903 2.20451 1.05106C1.67837 1.55022 1.29543 2.18112 1.09547 2.87825C0.895503 3.57539 0.885796 4.31334 1.06735 5.0155C1.24891 5.71765 1.61512 6.35841 2.12795 6.87123C2.64078 7.38406 3.28153 7.75026 3.98369 7.93181C4.68584 8.11336 5.4238 8.10365 6.12093 7.90368C6.81807 7.70371 7.44896 7.32077 7.94812 6.79462C8.44727 6.26848 8.79648 5.61831 8.9595 4.91162C8.97135 4.86002 8.96989 4.80626 8.95527 4.75537C8.94065 4.70449 8.91334 4.65816 8.87591 4.62072L8.87587 4.62076ZM7.1559 6.67673C6.54654 7.17138 5.78478 7.4399 4.99993 7.43673C4.08856 7.4357 3.21482 7.0732 2.57039 6.42877C1.92596 5.78434 1.56346 4.9106 1.56243 3.99923C1.55925 3.21439 1.82778 2.45262 2.32243 1.84326C2.70388 1.37101 3.20284 1.00741 3.76923 0.788961C3.75641 0.920875 3.74993 1.05373 3.74993 1.18673C3.75115 2.2638 4.17955 3.29641 4.94115 4.05801C5.70276 4.81961 6.73536 5.24801 7.81243 5.24923C7.94542 5.24923 8.07803 5.2428 8.21024 5.22994C7.99178 5.79633 7.62817 6.29529 7.1559 6.67673Z" ></path>
</symbol><symbol id="xx:ok" viewBox="0 0 12 17">
<path d="M5.10756 11.9753C3.78967 11.8378 2.60139 11.5132 1.58404 10.7175C1.4578 10.6185 1.32747 10.5231 1.21228 10.4125C0.766983 9.98488 0.722115 9.49508 1.07447 8.99032C1.3759 8.55838 1.88191 8.44282 2.40785 8.69084C2.5097 8.73892 2.60673 8.79892 2.69967 8.86337C4.59568 10.1661 7.20032 10.2021 9.10345 8.92195C9.292 8.77737 9.49355 8.65951 9.72714 8.59933C10.1813 8.48271 10.6049 8.64954 10.8487 9.04693C11.1271 9.50077 11.1236 9.94375 10.7805 10.2961C10.2542 10.8363 9.62121 11.2271 8.91792 11.4999C8.25292 11.7577 7.52454 11.8875 6.80363 11.9737C6.91242 12.0921 6.96369 12.1503 7.03171 12.2186C8.0106 13.2022 8.99377 14.1816 9.96946 15.1682C10.3019 15.5043 10.3713 15.9211 10.1883 16.3121C9.98816 16.7394 9.5402 17.0205 9.10096 16.9905C8.82267 16.9712 8.60563 16.8327 8.41281 16.6385C7.6741 15.8951 6.9215 15.1655 6.19774 14.4081C5.98711 14.1878 5.8858 14.2295 5.69992 14.4207C4.95676 15.1858 4.20149 15.9391 3.44177 16.6881C3.10063 17.0245 2.69469 17.085 2.29907 16.8929C1.87852 16.689 1.61092 16.2598 1.63157 15.8283C1.64582 15.5365 1.78932 15.3136 1.98962 15.1137C2.95837 14.1463 3.92445 13.1765 4.89088 12.2076C4.9548 12.1432 5.01445 12.0748 5.10756 11.9753Z" ></path>
<path d="M5.91036 8.6048C3.55926 8.59678 1.63138 6.64772 1.64509 4.29288C1.65862 1.91205 3.58775 -0.00657078 5.96199 1.69137e-05C8.34104 0.00642657 10.2506 1.95265 10.2387 4.35822C10.2265 6.70825 8.28531 8.61299 5.91036 8.6048ZM8.04708 4.29858C8.04299 3.12935 7.11181 2.19853 5.9449 2.19746C4.76819 2.19621 3.82865 3.14395 3.83773 4.32386C3.84645 5.48864 4.78564 6.41287 5.95576 6.4086C7.12232 6.40451 8.051 5.46763 8.04708 4.29858Z" ></path>
</symbol><symbol id="xx:people" viewBox="0 0 10 8">
  <path fill-rule="evenodd" clip-rule="evenodd" d="M9.375 7.75C9.375 7.75 10 7.75 10 7.125C10 6.5 9.375 4.625 6.875 4.625C4.375 4.625 3.75 6.5 3.75 7.125C3.75 7.75 4.375 7.75 4.375 7.75H9.375ZM4.37813 7.16V7.15875V7.16ZM4.38875 7.125H9.36125C9.36418 7.12466 9.36709 7.12424 9.37 7.12375L9.375 7.1225C9.37375 6.9575 9.27063 6.47875 8.9 6.0475C8.555 5.64313 7.94875 5.25 6.875 5.25C5.80188 5.25 5.19563 5.64375 4.85 6.0475C4.47938 6.47875 4.37563 6.95813 4.375 7.1225C4.37957 7.12338 4.38416 7.12422 4.38875 7.125ZM9.37187 7.16V7.15875V7.16ZM6.875 3.375C7.20652 3.375 7.52446 3.2433 7.75888 3.00888C7.9933 2.77446 8.125 2.45652 8.125 2.125C8.125 1.79348 7.9933 1.47554 7.75888 1.24112C7.52446 1.0067 7.20652 0.875 6.875 0.875C6.54348 0.875 6.22554 1.0067 5.99112 1.24112C5.7567 1.47554 5.625 1.79348 5.625 2.125C5.625 2.45652 5.7567 2.77446 5.99112 3.00888C6.22554 3.2433 6.54348 3.375 6.875 3.375ZM8.75 2.125C8.75 2.37123 8.7015 2.61505 8.60727 2.84253C8.51305 3.07002 8.37494 3.27672 8.20083 3.45083C8.02672 3.62493 7.82002 3.76305 7.59253 3.85727C7.36505 3.9515 7.12123 4 6.875 4C6.62877 4 6.38495 3.9515 6.15747 3.85727C5.92998 3.76305 5.72328 3.62493 5.54917 3.45083C5.37506 3.27672 5.23695 3.07002 5.14273 2.84253C5.0485 2.61505 5 2.37123 5 2.125C5 1.62772 5.19754 1.15081 5.54917 0.799175C5.90081 0.447544 6.37772 0.25 6.875 0.25C7.37228 0.25 7.84919 0.447544 8.20083 0.799175C8.55246 1.15081 8.75 1.62772 8.75 2.125ZM4.335 4.8C4.08499 4.72127 3.82727 4.66952 3.56625 4.64563C3.41958 4.63168 3.27233 4.6248 3.125 4.625C0.625 4.625 0 6.5 0 7.125C0 7.54187 0.208125 7.75 0.625 7.75H3.26C3.16735 7.55488 3.12114 7.34096 3.125 7.125C3.125 6.49375 3.36063 5.84875 3.80625 5.31C3.95813 5.12625 4.135 4.95437 4.335 4.8ZM3.075 5.25C2.0325 5.2625 1.44062 5.65 1.1 6.0475C0.726875 6.48125 0.625 6.96187 0.625 7.125H2.5C2.5 6.47188 2.70187 5.82125 3.075 5.25ZM0.9375 2.4375C0.9375 1.94022 1.13504 1.46331 1.48667 1.11167C1.83831 0.760044 2.31522 0.5625 2.8125 0.5625C3.30978 0.5625 3.78669 0.760044 4.13833 1.11167C4.48996 1.46331 4.6875 1.94022 4.6875 2.4375C4.6875 2.93478 4.48996 3.41169 4.13833 3.76333C3.78669 4.11496 3.30978 4.3125 2.8125 4.3125C2.31522 4.3125 1.83831 4.11496 1.48667 3.76333C1.13504 3.41169 0.9375 2.93478 0.9375 2.4375ZM2.8125 1.1875C2.48098 1.1875 2.16304 1.3192 1.92862 1.55362C1.6942 1.78804 1.5625 2.10598 1.5625 2.4375C1.5625 2.76902 1.6942 3.08696 1.92862 3.32138C2.16304 3.5558 2.48098 3.6875 2.8125 3.6875C3.14402 3.6875 3.46196 3.5558 3.69638 3.32138C3.9308 3.08696 4.0625 2.76902 4.0625 2.4375C4.0625 2.10598 3.9308 1.78804 3.69638 1.55362C3.46196 1.3192 3.14402 1.1875 2.8125 1.1875Z" ></path>
</symbol><symbol id="xx:person" viewBox="0 0 16 16">
<path fill-rule="evenodd" clip-rule="evenodd" d="M14.6667 16C14.6667 16 16 16 16 14.6667C16 13.3333 14.6667 9.33333 8 9.33333C1.33333 9.33333 0 13.3333 0 14.6667C0 16 1.33333 16 1.33333 16H14.6667ZM1.34 14.7413V14.7387V14.7413ZM1.36267 14.6667H14.6373C14.6436 14.6659 14.6498 14.665 14.656 14.664L14.6667 14.6613C14.6653 14.3333 14.4613 13.3467 13.5573 12.4427C12.688 11.5733 11.052 10.6667 8 10.6667C4.94667 10.6667 3.312 11.5733 2.44267 12.4427C1.53867 13.3467 1.336 14.3333 1.33333 14.6613C1.34309 14.6632 1.35287 14.665 1.36267 14.6667ZM14.6613 14.7413V14.7387V14.7413ZM8 6.66667C8.70724 6.66667 9.38552 6.38572 9.88562 5.88562C10.3857 5.38552 10.6667 4.70724 10.6667 4C10.6667 3.29276 10.3857 2.61448 9.88562 2.11438C9.38552 1.61428 8.70724 1.33333 8 1.33333C7.29276 1.33333 6.61448 1.61428 6.11438 2.11438C5.61428 2.61448 5.33333 3.29276 5.33333 4C5.33333 4.70724 5.61428 5.38552 6.11438 5.88562C6.61448 6.38572 7.29276 6.66667 8 6.66667ZM12 4C12 5.06087 11.5786 6.07828 10.8284 6.82843C10.0783 7.57857 9.06087 8 8 8C6.93913 8 5.92172 7.57857 5.17157 6.82843C4.42143 6.07828 4 5.06087 4 4C4 2.93913 4.42143 1.92172 5.17157 1.17157C5.92172 0.421427 6.93913 0 8 0C9.06087 0 10.0783 0.421427 10.8284 1.17157C11.5786 1.92172 12 2.93913 12 4Z" fill="white"></path>
</symbol><symbol id="xx:rows-table" viewBox="0 0 30 24">
<path d="M0 0.75H21.75V3H0V0.75Z" ></path>
<path d="M0 7.5H21.75V9.75H0V7.5Z" ></path>
<path d="M0 14.25H21.75V16.5H0V14.25Z" ></path>
<path d="M0 21H21.75V23.25H0V21Z" ></path>
<path d="M27.75 0.75H30V3H27.75V0.75Z" ></path>
<path d="M27.75 7.5H30V9.75H27.75V7.5Z" ></path>
<path d="M27.75 14.25H30V16.5H27.75V14.25Z" ></path>
<path d="M27.75 21H30V23.25H27.75V21Z" ></path>
</symbol><symbol id="xx:search" viewBox="0 0 18 18">
<path d="M12.5 11H11.71L11.43 10.73C12.41 9.59 13 8.11 13 6.5C13 2.91 10.09 0 6.5 0C2.91 0 0 2.91 0 6.5C0 10.09 2.91 13 6.5 13C8.11 13 9.59 12.41 10.73 11.43L11 11.71V12.5L16 17.49L17.49 16L12.5 11ZM6.5 11C4.01 11 2 8.99 2 6.5C2 4.01 4.01 2 6.5 2C8.99 2 11 4.01 11 6.5C11 8.99 8.99 11 6.5 11Z" fill="white"></path>
</symbol><symbol id="xx:settings" viewBox="0 0 23 20">
<path fill-rule="evenodd" clip-rule="evenodd" d="M4.21875 0.625H2.65625V8.4375H4.21875V0.625ZM13.75 8.4375H8.75L8.125 7.57812V6.01562L8.75 5.3125H13.75L14.375 6.09375V7.65625L13.75 8.4375ZM5.9375 13.125H0.9375L0.3125 12.3438V10.7812L0.9375 10H5.9375L6.5625 10.7812V12.3438L5.9375 13.125ZM12.0312 0.625H10.4688V3.75H12.0312V0.625ZM10.4688 10H12.0312V19.375H10.4688V10ZM4.21875 14.6875H2.65625V19.375H4.21875V14.6875ZM16.5625 14.6875H21.5469L22.1719 13.9062V12.4219L21.5469 11.6406H16.5625L15.9375 12.4219V13.9062L16.5625 14.6875ZM19.8438 0.625H18.2812V10H19.8438V0.625ZM18.2812 16.25H19.8438V19.375H18.2812V16.25Z" fill="white"></path>
</symbol><symbol id="xx:slider-table" viewBox="0 0 33 24">
<path d="M0.75 21H32.25V23.25H0.75V21Z" ></path>
<path d="M13.125 14.25H1.875V9.75H13.125V14.25ZM14.25 14.25V9.75C14.25 9.15326 14.1315 8.58097 13.9205 8.15901C13.7095 7.73705 13.4234 7.5 13.125 7.5H1.875C1.57663 7.5 1.29048 7.73705 1.0795 8.15901C0.868526 8.58097 0.75 9.15326 0.75 9.75V14.25C0.75 14.8467 0.868526 15.419 1.0795 15.841C1.29048 16.2629 1.57663 16.5 1.875 16.5H13.125C13.4234 16.5 13.7095 16.2629 13.9205 15.841C14.1315 15.419 14.25 14.8467 14.25 14.25Z" ></path>
<path d="M31.125 14.25H19.875V9.75H31.125V14.25ZM32.25 14.25V9.75C32.25 9.15326 32.1315 8.58097 31.9205 8.15901C31.7095 7.73705 31.4234 7.5 31.125 7.5H19.875C19.5766 7.5 19.2905 7.73705 19.0795 8.15901C18.8685 8.58097 18.75 9.15326 18.75 9.75V14.25C18.75 14.8467 18.8685 15.419 19.0795 15.841C19.2905 16.2629 19.5766 16.5 19.875 16.5H31.125C31.4234 16.5 31.7095 16.2629 31.9205 15.841C32.1315 15.419 32.25 14.8467 32.25 14.25Z" ></path>
<path d="M0.75 0.75H32.25V3H0.75V0.75Z" ></path>
</symbol><symbol id="xx:small-arrow" viewBox="0 0 11 6">
<path d="M0.5 1L5.5 5L10.5 1" stroke="black"></path>
</symbol><symbol id="xx:tg" viewBox="0 0 16 13">
<path d="M14.0821 0.63287L1.52334 5.47574C0.666258 5.81999 0.671216 6.29812 1.36609 6.51133L4.59042 7.51716L12.0506 2.81029C12.4033 2.59566 12.7256 2.71112 12.4607 2.94629L6.41651 8.40116H6.41509L6.41651 8.40187L6.19409 11.7254C6.51992 11.7254 6.66372 11.5759 6.84647 11.3995L8.41259 9.87662L11.6702 12.2828C12.2709 12.6136 12.7023 12.4436 12.8517 11.7268L14.9902 1.64862C15.2091 0.770995 14.6551 0.37362 14.0821 0.63287Z" ></path>
</symbol><symbol id="xx:vk" viewBox="0 0 17 11">
<path fill-rule="evenodd" clip-rule="evenodd" d="M16.6104 1.21325C16.728 0.826498 16.6104 0.541748 16.0473 0.541748H14.1879C13.7148 0.541748 13.4966 0.78754 13.3783 1.05883C13.3783 1.05883 12.4327 3.32266 11.0932 4.79317C10.6597 5.21958 10.4628 5.35487 10.2262 5.35487C10.1079 5.35487 9.93012 5.21958 9.93012 4.83212V1.21325C9.93012 0.748581 9.79979 0.541748 9.40596 0.541748H6.48196C6.18658 0.541748 6.00879 0.757081 6.00879 0.96179C6.00879 1.40166 6.67887 1.50366 6.74758 2.74183V5.43208C6.74758 6.02212 6.63921 6.12908 6.40262 6.12908C5.77221 6.12908 4.23867 3.85462 3.32846 1.25221C3.15208 0.745748 2.97358 0.541748 2.49829 0.541748H0.6375C0.10625 0.541748 0 0.78754 0 1.05883C0 1.54191 0.630417 3.94175 2.93604 7.11579C4.47312 9.28329 6.63708 10.4584 8.60837 10.4584C9.79058 10.4584 9.9365 10.1977 9.9365 9.74796V8.10958C9.9365 7.58754 10.0484 7.48342 10.4231 7.48342C10.6994 7.48342 11.1718 7.61941 12.2754 8.66421C13.5362 9.90308 13.7438 10.4584 14.4535 10.4584H16.3129C16.8442 10.4584 17.1105 10.1977 16.9575 9.68208C16.7889 9.16925 16.1868 8.42479 15.3885 7.5415C14.955 7.03858 14.3048 6.49671 14.1072 6.22542C13.8316 5.87762 13.9102 5.7225 14.1072 5.41296C14.1072 5.41296 16.3738 2.27787 16.6097 1.21325H16.6104Z" ></path>
</symbol><symbol id="xx:wa" viewBox="0 0 32 32">
<path d="M26.576 5.363c-2.69-2.69-6.406-4.354-10.511-4.354-8.209 0-14.865 6.655-14.865 14.865 0 2.732 0.737 5.291 2.022 7.491l-0.038-0.070-2.109 7.702 7.879-2.067c2.051 1.139 4.498 1.809 7.102 1.809h0.006c8.209-0.003 14.862-6.659 14.862-14.868 0-4.103-1.662-7.817-4.349-10.507l0 0zM16.062 28.228h-0.005c-0 0-0.001 0-0.001 0-2.319 0-4.489-0.64-6.342-1.753l0.056 0.031-0.451-0.267-4.675 1.227 1.247-4.559-0.294-0.467c-1.185-1.862-1.889-4.131-1.889-6.565 0-6.822 5.531-12.353 12.353-12.353s12.353 5.531 12.353 12.353c0 6.822-5.53 12.353-12.353 12.353h-0zM22.838 18.977c-0.371-0.186-2.197-1.083-2.537-1.208-0.341-0.124-0.589-0.185-0.837 0.187-0.246 0.371-0.958 1.207-1.175 1.455-0.216 0.249-0.434 0.279-0.805 0.094-1.15-0.466-2.138-1.087-2.997-1.852l0.010 0.009c-0.799-0.74-1.484-1.587-2.037-2.521l-0.028-0.052c-0.216-0.371-0.023-0.572 0.162-0.757 0.167-0.166 0.372-0.434 0.557-0.65 0.146-0.179 0.271-0.384 0.366-0.604l0.006-0.017c0.043-0.087 0.068-0.188 0.068-0.296 0-0.131-0.037-0.253-0.101-0.357l0.002 0.003c-0.094-0.186-0.836-2.014-1.145-2.758-0.302-0.724-0.609-0.625-0.836-0.637-0.216-0.010-0.464-0.012-0.712-0.012-0.395 0.010-0.746 0.188-0.988 0.463l-0.001 0.002c-0.802 0.761-1.3 1.834-1.3 3.023 0 0.026 0 0.053 0.001 0.079l-0-0.004c0.131 1.467 0.681 2.784 1.527 3.857l-0.012-0.015c1.604 2.379 3.742 4.282 6.251 5.564l0.094 0.043c0.548 0.248 1.25 0.513 1.968 0.74l0.149 0.041c0.442 0.14 0.951 0.221 1.479 0.221 0.303 0 0.601-0.027 0.889-0.078l-0.031 0.004c1.069-0.223 1.956-0.868 2.497-1.749l0.009-0.017c0.165-0.366 0.261-0.793 0.261-1.242 0-0.185-0.016-0.366-0.047-0.542l0.003 0.019c-0.092-0.155-0.34-0.247-0.712-0.434z"></path>
</symbol></svg>